<?xml version="1.0" encoding="UTF-8"?>
<svg version="1.1" viewBox="0 0 900 900" xmlns="http://www.w3.org/2000/svg">
 <g transform="translate(0 -152.36)">
  <path d="m849.01 861.57c0.39817-3.4571 1.8302 1.6066 0.14103 0.65811zm-422.58-2.0347c-6.6996-0.78083-13.119-4.192-17.838-8.9705-3.6363-3.5158-4.6494-8.9474-8.5516-12.18-4.2648-0.14083-5.462 6.9769-9.7213 8.5399-4.0245 3.2827-8.7108 5.77-13.968 6.147-5.0802 0.84232-10.119-0.9363-14.956-2.2583-7.0942-3.4215-13.32-9.3973-15.549-17.123-1.0261-3.0292-2.598-7.8294-5.8297-3.6248-6.5071 5.915-15.122 10.17-24.114 9.1119-6.6241-0.13145-12.385-4.2947-16.842-8.8439-3.9185-3.6352-5.7059-8.552-6.8357-13.622-0.28253-3.1517-1.4007-10.499-5.6505-5.8174-5.4664 4.0031-12.453 4.1964-18.949 5.0156-5.7934-1.7093-11.828-3.6944-15.637-8.6954-4.5502-5.407-6.7982-12.368-6.7959-19.395 0.77038-3.8246-1.8498-7.5704-5.5001-4.3763-4.6891 1.9067-10.107 4.0467-15.056 1.8315-5.4891-1.1654-10.333-4.2693-13.777-8.695-5.2968-5.8468-5.423-14.147-4.7688-21.551-1.5654-4.569-8.3003 2.4305-12.145 0.97838-5.8977 0.40328-11.996-0.68868-16.714-4.469-6.6579-4.3324-9.8296-12.749-9.3241-20.481 0.14884-3.432 2.046-11.234-3.9908-7.7537-5.081 0.72185-10.816 0.53203-15.436-1.9229-8.4661-3.7924-12.944-13.363-12.234-22.346-0.0368-3.9875 4.4918-11.651-2.7956-10.832-6.747 0.42522-12.979-3.5221-17.215-8.4961-4.7998-6.3144-5.2125-15.296-2.3754-22.518 1.0246-1.6224 2.74-6.0148-0.62364-5.4797-8.2161-0.5578-16.523-5.2474-19.299-13.349-2.2933-6.2922-2.0148-13.598 1.485-19.402 2.3395-3.5506 1.8145-8.2649-3.3052-8.2329-5.791-1.3815-8.7883-6.8418-11.459-11.63-1.5607-4.6973-1.2339-10.132-0.02156-14.901 0.75004-3.4145 6.2699-9.9723-0.5196-9.9905-6.7652-2.5304-11.575-9.1124-13.2-15.972-0.22407-5.1955-0.35256-10.836 3.1008-15.12 3.3659-2.9122 3.8418-7.2967-1.4231-7.4412-7.7541-3.7756-12.174-13.093-10.245-21.487 0.17017-5.3714 5.6488-7.9556 7.5246-12.206-3.4825-2.489-8.3832-4.2117-10.437-8.4497-3.191-4.5998-2.9826-10.441-2.2339-15.729 0.47941-5.5025 8.6904-8.1735 8.2959-12.72-3.5485-2.5238-7.4461-4.9461-9.1453-9.2353-3.0327-5.3854-3.2252-12.296 0.36473-17.473 2.4207-4.882 7.4303-6.9785 11.853-9.4824-3.1645-3.7653-7.0165-7.4888-7.5875-12.686-1.3272-7.8215 3.7559-16.248 11.433-18.535 4.5675 0.17045 7.9594-3.9557 4.5345-7.9298-2.091-4.7632-0.79514-10.26 0.84077-14.961 3.8266-7.5476 13.848-11.392 21.592-7.5812 6.7362 4.4097 5.9187-5.4836 9.5561-8.5484 2.5946-4.7384 8.2794-6.1032 13.271-6.1563 4.5912 0.0975 9.1958 1.6503 12.231 5.2344 4.878 3.2192 5.4826-7.3091 10.447-7.8956 6.0559-3.022 14.517-3.3011 19.373 2.1113 3.9906 1.0871 3.6331 10.749 8.536 5.6446 3.8301-2.6179 8.5274-5.8325 13.235-3.2254 4.876 1.1924 8.529 4.8934 10.536 9.359 3.3885 4.706 7.9905-3.8909 12.86-1.8703 5.6936-0.50228 11.724 3.1045 13.401 8.6875 3.0211 3.3702 7.3486-5.4631 11.933-2.5413 3.7464 3.5226 10.483 1.422 12.948 6.4198 0.94766 6.233 6.6075-0.0836 10.195-0.0341 4.9316 0.0772 10.769 1.2753 12.8 6.4356 2.7925 3.9889 6.734-4.3015 10.945-2.698 5.3444-0.23328 10.335 3.2163 12.532 7.9948 4.0248-0.6802 10.611-5.8046 15.593-1.3752 3.0186 1.9604 5.11 8.2486 8.4204 2.8051 3.9787-2.6407 9.6014-3.6151 13.477-0.22364 2.418 2.0858 4.301 5.5695 6.7595 1.2607 3.9418-3.2171 10.288-3.646 13.866 0.38312 4.4257 5.5513 8.204-5.2262 13.996-2.8246 3.8102-0.94605 6.3713 4.8975 8.8814 4.3313 3.7332-4.1181 10.781-5.9362 15.038-1.5682 2.4246 1.9529 3.7938-4.52 7.3542-3.9141 4.6415-2.7349 9.0942 2.2478 12.336 2.5816 2.4754-5.6197 10.228-7.7634 15.21-4.259 4.2554 0.25814 9.2304 0.42659 13.832 0.61138 14.602 0.45045 29.231-0.0538 43.821 0.61324 2.8489 4.8544 6.5447-3.1436 11.237-1.2688 3.2833 0.11251 5.4325 2.6446 7.4985 4.8462 2.9908-3.718 8.3241-6.0313 12.8-3.5178 2.8172 2.7343 5.7279 3.8441 8.6225 0.4457 5.0697-3.799 9.7481 2.0128 13.923 2.5263 3.1714-5.6097 11.404-5.959 15.998-1.9198 3.6189 1.7944 5.2224-5.4938 9.725-4.7139 4.4938-1.2851 8.3873 1.0823 11.515 3.9638 2.5534-2.3908 5.2389-5.7102 9.1656-6.0937 5.2735-2.5496 10.351 7.389 13.419 0.16333 3.646-3.8544 10.914-4.646 14.868-0.78354 3.5507 1.8545 5.2163-5.7382 9.6418-5.5463 4.9648-2.3488 8.8466 2.5786 12.608 3.664 3.2262-5.0934 10.399-7.6003 15.908-4.6837 5.1218 4.0443 6.494-6.8093 12.196-4.9956 4.555-1.9509 9.6222 6.232 12.316 0.20876 3.5392-6.3432 11.146-5.7043 16.613-2.6418 4.1878-2.0038 6.3164-7.7575 11.567-7.7549 4.2008-1.445 7.597 2.6419 11.199 2.5776 1.4373-5.9055 7.6988-9.6257 13.601-8.4979 3.9519 0.15063 7.6633 5.7868 10.532 0.42181 3.0082-4.123 7.8362-6.9149 13.054-6.1002 3.7353 0.0103 6.94 2.2514 9.0442 5.1915 4.0516-3.9725 9.0567-8.596 15.161-7.6192 5.3326 0.11771 7.8222 5.7972 11.519 7.7183 3.6623-3.5772 9.3752-6.3491 14.279-3.4906 5.5143 1.869 10.171 6.8889 10.125 12.941 3.3197 2.2526 8.7681-1.192 12.697 1.1758 4.4195 1.9927 8.8742 5.4269 9.449 10.597 1.7796 4.5363-1.4237 8.7981-2.4658 12.849 3.8639 1.7929 8.9459 1.8414 11.738 5.7258 4.939 4.6752 5.3094 12.46 2.6285 18.383-1.4848 3.2272-8.8822 7.0476-1.9034 8.66 6.2313 3.2947 10.251 10.421 9.0747 17.499-0.27754 6.1044-5.4709 9.7618-9.5497 13.392 0.93641 4.4344 6.8961 6.4041 7.6151 11.262 1.8773 4.4192 1.5252 9.3439-0.35501 13.692-1.8322 4.6476-6.4954 6.7592-9.7874 9.9767 2.828 3.8308 7.0005 7.1665 7.7247 12.271 1.3044 6.752-0.36204 14.886-6.4198 18.893-3.326 1.6376-7.9532 4.6889-3.563 8.2262 5.6489 6.3693 7.3602 16.712 2.2898 23.905-3.2092 5.3629-8.9109 8.5785-14.788 10.178-0.28586 3.7178 5.5586 7.1393 5.7786 11.73 1.9071 5.8477 0.40525 12.109-2.4388 17.369-2.683 3.7759-6.9564 6.6378-11.387 8.1051-7.0119 1.3515-1.9604 8.6604-0.72624 12.77 1.1949 6.0054 0.72199 12.783-3.3495 17.674-2.7263 5.0084-8.6185 7.472-14.065 7.9479-3.9913-0.72553-7.1581 1.844-3.8936 5.4802 3.0366 6.9737 2.5286 15.482-2.2624 21.57-4.3226 6.417-12.35 8.9265-19.757 8.9971-5.2201 2.2293 1.1192 8.7394 0.0976 12.932 0.40126 11.745-9.4803 23.147-21.398 23.609-4.2718-0.42583-10.687 0.0481-8.4723 6.1189 1.1197 7.7056-0.84515 16.163-6.6811 21.611-3.4356 3.6552-8.121 6.2903-13.134 6.999-5.1001 1.5317-10.225-1.9156-15.157-1.0045-1.3256 5.2259 0.61897 11.19-2.4273 16.173-3.6566 8.6485-12.787 14.794-22.273 14.221-4.1678 1.308-13.768-5.1084-13.208 2.3316 1.1733 5.1815-0.59746 10.573-2.7908 15.232-2.5848 4.4737-6.1359 8.4281-10.939 10.563-8.0023 4.4575-18.154 4.5423-26.109-0.0614-7.0672-3.914-5.7708 5.5175-6.1717 9.6949-0.42714 8.0827-7.4695 13.322-13.157 18.078-4.6682 3.0599-10.276 4.3322-15.813 3.6807-6.2176-0.093-12.258-2.4902-16.893-6.5798-3.2749-2.4491-6.0992-1.0426-5.7054 2.9667-1.8695 12.165-12.636 22.049-24.681 23.673-8.5264 0.64187-17.58-1.823-23.479-8.2924-2.6207-3.8758-8.4159-5.1569-9.6082 0.59978-5.9821 11.01-19.221 18.744-31.799 15.205-8.4124-1.6769-15.215-8.0073-19.036-15.474-4.6444-0.76396-5.3853 6.35-8.3469 9.0244-5.7206 7.8198-16.076 11.752-25.58 10.334zm-22.701-42.935c3.1327-4.5468 6.5505-9.0942 11.517-11.795 10.9-6.6188 26.243-4.3629 34.942 4.9327 2.7665 2.7695 6.2287 9.5302 9.9372 3.6362 2.7461-4.2383 6.073-8.3407 10.901-10.278 3.734-2.8234 8.3403-4.3212 12.954-4.6249 6.8432-0.21413 14.406 0.56418 19.378 5.8487 2.7369 2.848 8.4327 10.699 10.958 3.5317 2.6843-5.9714 6.9972-11.275 13.003-14.119 6.0269-3.7195 13.481-3.1627 20.227-2.4624 5.2976 0.69663 9.1484 4.6689 13.551 7.1888 6.0125 2.0167 4.4219-6.0143 6.6802-9.1692 3.2211-7.3164 9.4908-13.126 17.154-15.502 6.9472-2.5221 14.704-1.2299 21.428 1.3615 2.7839 2.8811 8.6628 4.9856 7.2028-1.1805-0.35552-7.8655 2.6725-16.044 9.1776-20.776 3.9848-3.8177 9.2629-6.3157 14.722-6.9125 5.5784-0.21298 10.912 1.622 16.174 3.1714 4.2903-1.2221 0.24159-8.3053 2.7361-11.791 1.691-8.2022 8.8398-14.145 16.386-16.925 6.0227-1.7381 12.297 0.52783 18.344-0.25137 1.4912-3.7081-0.63315-9.194 1.4047-13.356 2.4281-7.4856 8.2129-14.14 16.099-15.921 4.9883-1.5453 10.3-0.57278 15.341-1.5238-0.12912-5.244-1.2803-10.687 0.64908-15.794 3.1257-10.029 13.797-17.112 24.286-15.599 6.7616 1.3318 1.9531-5.6282 1.8726-9.0462-1.129-7.264 1.0674-15.281 7.2256-19.751 4.3132-3.804 9.9984-5.5492 15.687-5.241 3.8442-1.8936-3.043-6.71-1.8019-10.459-1.1069-6.9975 1.8575-14.203 7.5072-18.449 3.354-3.1303 7.803-4.5393 12.246-5.1774 3.568-1.8424-3.3739-5.7968-3.3849-8.9781-2.9328-6.04-1.424-13.368 1.5521-19.085 3.169-5.589 9.5022-7.762 15-10.147 2.8286-1.5082-2.7373-3.6378-2.7319-5.7125-3.1508-4.9598-4.1653-11.107-2.3283-16.737 1.5964-6.5038 7.3312-10.741 13.189-13.238 2.8045-3.9376-5.0196-7.1621-4.8037-11.766-0.5763-5.3878-1.3347-11.535 2.7384-15.846 1.5488-3.9659 7.3937-4.775 8.3858-8.3942-3.3192-2.9275-5.3526-7.1947-6.6367-11.412-1.3945-5.1748 0.5492-10.952 3.7763-15.047 1.3183-3.2647 11.623-4.576 6.0053-7.8964-5.1968-3.678-8.6158-10.51-7.5639-16.884 0.79211-5.3027 4.8686-8.8546 8.4851-12.378-3.0315-1.9754-8.9167-4.4909-10.369-9.3644-2.0847-4.6569-2.1898-10.086 0.6663-14.454 4.5986-4.9613-5.5099-2.2486-7.6152-5.457-4.0251-3.3752-7.5683-8.6112-6.6792-14.115-2.9256-2.2162-10.377 1.1526-14.089-2.8637-3.5734-2.0844-4.9404-8.9476-9.1714-3.4522-2.2199 1.0724-4.7237 2.8327-7.1612 2.8426-3.7948-1.4279-7.9766-2.4506-10.758-5.611-3.6695 1.1688-6.5295 8.0525-12.188 6.741-4.7054 0.5018-8.7924-2.6198-12.499-4.4432-3.3378 5.3564-10.579 9.3198-16.687 6.0665-5.5658-4.4792-6.591 3.6782-10.593 5.7492-4.4976 2.4977-10.049 1.6113-14.241-1.0806-2.8696-1.9525-3.8404 4.1238-6.6932 4.7263-4.2591 3.3923-9.818 1.6175-13.825-1.1919-3.9604 1.9707-6.1917 7.9139-11.532 6.8315-4.7395 0.62321-9.5354-6.2857-12.435 0.0352-4.2252 4.6355-12.368 3.8896-16.467-0.53162-2.9487 2.7063-6.4663 7.9088-11.912 6.6518-3.0602 0.21209-5.9454-2.5959-7.9363-3.6144-2.4211 3.1902-5.0944 7.4325-9.7071 6.9325-4.7601 2.1566-10.153-6.1134-13.175 0.33842-3.0515 4.1246-8.6267 3.6097-12.71 1.502-2.7296-3.1022-5.6646-3.4974-7.5184 0.66169-4.4541 4.4791-12.943 3.5672-16.167-1.8599-3.5634 0.52362-6.3769 6.4243-11.204 5.3503-3.3046 0.53772-5.6675-3.7926-8.051-3.8521-3.4781 3.144-8.2131 6.2984-13.024 4.1527-3.145-1.8577-5.371-5.4265-8.4819-1.0544-4.0644 2.44-9.7415 1.8462-12.535-2.2384-1.5194-2.9695-3.0914 1.1705-4.8458 1.8135-4.5983 2.5391-9.7284 1.1392-13.339-2.023-4.0107 1.9441-8.2597-1.4315-12.628-0.37272-13.129 0.33938-26.268-0.19118-39.389-0.21888-3.8567 1.793-7.8097 0.14366-11.581 2.7326-4.7556 2.7402-9.2828-5.9895-12.434-1.2486-3.184 4.5233-10.336 4.0515-14.468 1.1861-3.8769 0.38908-6.7588 5.5878-11.545 4.251-3.0813 0.0667-5.4614-3.1596-7.7695-3.9229-2.9459 3.613-7.3437 7.2542-12.302 5.5025-3.9713-0.69513-7.0912-8.4826-10.246-2.4059-4.1223 4.1277-11.471 3.0221-15.142-1.1898-3.5361-2.4288-5.6364 5.465-10.316 4.2756-4.7682 0.61216-9.9546-1.6886-11.819-6.2927-3.4059-0.61703-6.0536 5.8147-10.67 4.0432-5.6463 1.4211-8.7848-4.8476-12.549-6.2017-4.5249 4.2335-11.821 3.8218-16.405-0.11502-2.5987-1.8015-4.1282-7.4854-7.44-2.7283-6.0366 5.2233-17.086 2.8516-19.724-4.9466-2.9252-2.9066-5.3343 4.7847-9.4556 3.4376-6.1733 1.106-13.06-1.5102-15.788-7.4315-2.2281-6.1585-7.3269 2.5799-11.823 2.1807-5.4598 0.7949-11.11-3.1178-13.631-7.7641-0.48738-5.1965-3.8565-4.5072-6.4431-0.98327-2.8476 1.9916-6.1444 3.1362-9.4079 4.2384-3.1407-1.8438-7.1157-2.126-9.4286-5.1885-2.9401-2.0196-4.3534-9.613-8.1657-4.5307-3.6452 3.3702-7.6299 6.0065-12.614 4.1324-4.7232-0.20193-8.2285-3.5525-11.436-6.6182-3.1862-0.0551-3.4662 7.5908-7.0376 9.4191-3.475 3.6446-8.9593 4.5555-13.78 4.3252-3.442-0.43335-9.6851-6.9337-9.5084-0.0224-1.1291 5.1205-4.2292 9.5848-9.188 11.623-2.317 2.9202-11.437-0.35094-9.4991 4.2981 3.2609 2.9418 4.8077 7.2632 4.3989 11.614 0.05224 7.3918-5.8522 14.372-13.02 15.868 2.0635 3.0631 6.6166 6.5932 7.6633 11.288 1.0067 4.694 1.8027 10.137-1.1053 14.353-1.9002 4.0585-6.0668 6.0946-9.4232 8.7642 5.1873 2.303 10.333 5.652 12.266 11.297 3.0265 6.8874 1.4834 15.782-4.5957 20.517-4.8441 3.972 4.5442 5.7531 6.253 8.7889 3.6718 3.294 5.2139 8.1697 5.0752 13.001 1.0387 5.3557-2.5829 9.7946-5.6603 13.688 3.3206 3.3393 9.53 3.5383 12.669 7.8904 7.2537 7.3512 7.4679 20.044 0.5979 27.726-1.005 2.5498 4.5879 3.0776 6.4827 3.9631 4.1642 2.9702 8.969 5.7896 10.527 11.046 3.2958 7.5842 1.471 16.662-3.9178 22.81-2.0818 3.9865 6.8172 3.3358 9.1683 5.69 7.1492 3.2281 10.057 11.235 11.354 18.42 0.45719 5.229-4.6323 10.29-4.4772 14.561 5.5842 0.55299 11.57 1.3345 15.835 5.3953 5.7666 5.0903 8.9243 13.18 7.0608 20.787-2.08 3.8431-2.5916 8.6342 3.3834 7.1814 3.2206-0.27274 4.0746-0.79115 7.1777 0.5837 4.7772 2.1165 9.8709 3.7995 12.616 8.3459 3.2634 4.3375 4.7714 9.8009 4.6913 15.214 0.11906 3.4729-2.7051 8.5127 3.0721 6.4584 6.7204-0.69003 13.93-1.2537 20.008 2.3169 4.482 2.871 8.0921 7.3373 9.867 12.458 1.7416 5.137 1.4455 10.67 0.78566 15.948 4.2619 1.2411 8.9286-2.2869 13.464-2.4091 7.2903-0.42586 14.838 3.0445 19.465 8.6344 4.0666 5.2485 5.5789 11.919 5.454 18.45 1.9077 6.3617 7.572-2.8222 11.848-1.8044 7.435-1.1354 15.435 0.0444 21.491 4.7576 6.6511 4.4601 10.009 12.709 10.674 20.462-0.89644 7.2396 6.5954-0.31495 9.7418-1.2571 5.4779-2.9921 11.861-2.3958 17.876-2.9064 6.8094 3.2023 14.158 6.6893 17.588 13.842 2.8349 2.7456 1.5928 10.041 5.2413 10.587 4.4783-4.3449 8.6941-9.7274 15.266-10.809 7.2999-1.8893 15.461-2.2135 22.414 1.0345 4.1555 2.4877 8.0359 5.5353 10.651 9.7073 2.8843 2.2792 2.3712 11.432 7.0763 9.0439l4e-5 -2.4e-4z" fill="#fff"/>
  <path d="m849.09 861.53c0.39838-3.4592 1.8313 1.6076 0.1411 0.65849zm-425.11-2.4209c-7.1468-2.0671-14.555-5.7311-18.26-12.532-1.8313-3.1232-5.7558-12.946-9.4009-6.3539-3.728 5.0346-8.8424 9.3567-14.681 11.678-6.2801 1.6566-12.869 1.2497-18.99-0.83499-6.4454-2.2778-12.013-7.2584-15.204-13.285-2.0687-3.0334-2.7084-13.547-7.8183-7.8002-5.8398 5.4218-13.421 9.3313-21.563 8.9998-10.082 0.45581-18.972-6.6286-23.712-15.049-2.0905-4.5426-1.8899-9.8796-4.2698-14.247-4.2053-0.13302-8.4223 4.7685-13.329 4.9285-5.0464 0.81755-10.231 1.7132-14.963-0.73828-9.9037-3.3456-16.226-13.763-16.558-23.946 0.21293-3.7748-0.80225-11.172-5.9536-6.5889-5.1421 2.503-11.193 3.4931-16.624 1.256-5.9935-1.2018-10.392-6.0116-13.821-10.745-3.0205-5.532-4.1848-12.276-2.6145-18.425-0.54822-5.6807-8.0797 1.0007-11.551 0.21871-8.0612 1.4125-16.495-1.8485-21.778-8.0073-4.3641-5.7284-6.2667-13.081-5.0981-20.198 1.8192-3.7221-0.65368-6.6254-4.4961-4.487-5.6145 0.51684-11.989 1.0083-16.664-2.7543-8.584-4.5476-12.241-15.653-10.035-24.809 1.566-3.7504 1.4922-8.8445-4.0632-7.3713-7.2529 0.12225-13.82-4.77-17.778-10.54-3.3649-5.994-3.8402-13.729-1.2416-20.083 2.2394-2.7855 2.1361-7.5372-2.5903-6.2807-8.0062-0.71328-15.481-6.3124-17.608-14.214-2.1841-6.4046-1.0256-13.565 2.4614-19.271 4.0664-7.2224-5.8401-6.3473-9.0745-9.7952-3.6644-3.9063-7.839-8.6428-7.3565-14.454-0.61603-5.3533 1.1981-10.402 3.3553-15.199 3.013-5.8156-6.3771-3.5675-8.5512-7.5183-3.5393-3.249-5.9173-7.7-7.6787-12.062 0.40992-5.4971-0.31032-11.632 3.692-16.052 3.2673-3.2928 3.073-7.0777-2.0275-7.3574-9.4496-4.3988-13.205-17.178-8.2567-26.172 1.286-2.8852 9.5927-7.1098 3.1511-8.9688-4.5677-2.1304-7.9216-6.017-9.6877-10.701-1.4245-4.6467-1.5107-10.201 0.85758-14.582 0.65802-4.3992 9.0469-6.0752 6.7336-10.44-4.5735-2.3933-8.0764-6.2947-9.9461-11.15-1.6295-4.9099-1.4703-10.873 1.5544-15.266 2.5893-4.5821 7.4884-6.7206 11.856-9.1414-2.5585-3.6022-6.6165-6.6728-7.2842-11.448-2.2207-7.773 2.393-16.158 9.6492-19.293 3.7632-1.0935 10.086-2.604 6.3219-7.8572-2.5586-5.5957-1.516-12.552 1.7116-17.629 4.1397-6.2059 12.899-8.9933 19.714-5.6837 4.0489 2.7576 7.2469 0.11068 7.5473-4.2644 2.4489-4.4747 5.843-9.461 11.438-9.8329 5.4572-0.81897 12.134-0.48261 15.747 4.3137 5.2892 5.403 6.0661-6.2207 10.818-7.25 4.8788-2.4433 11.23-3.3008 16.266-0.82145 4.5118 1.9237 6.4407 6.5307 8.8945 9.9984 4.7021-1.2506 8.2198-6.668 13.638-5.6762 4.7577 0.99109 9.4859 3.2662 11.906 7.7114 1.2213 5.5458 6.1927 3.9823 9.5009 1.3126 6.8908-2.6388 16.301 0.79805 18.327 8.2964 3.8303 2.0285 7.4471-5.438 12.316-2.7326 6.0928 3.0584-3.721 2.1421-5.6148 3.9551-4.5147 2.3297-5.9671 7.7789-5.0875 12.494 0.12388 1.0931 3.2759 6.8128 2.8922 2.9401 1.059-5.8079 6.6427 4.6112 9.859-0.6775 3.035-2.825 5.9672-5.8888 5.5715-10.279 2.3594 2.0992 3.8564 1.5368 1.814-1.46-1.8764-1.5671-6.3409-5.2851-0.82975-3.99 4.2501 0.88141 4.4716 9.8653 9.6046 4.7622 4.7282-2.5506 11.302-1.612 15.216 2.0307 2.0088 3.8998 4.1039 6.2109 7.5539 1.9521 6.1766-4.362 15.144-0.22929 17.937 6.2432 3.9236-0.13547 8.7881-5.1262 13.673-2.1995 4.6902 0.41211 6.2329 10.106 10.469 3.7746 4.4788-3.3952 11.442-3.463 15.144 1.1592 3.5324 5.2327 6.6124-4.0597 11.591-2.6607 4.3435-0.5817 7.3989 2.7191 10.282 5.3885 3.1048-3.1065 6.9981-6.3112 11.73-5.2506 4.6601-0.66092 7.1188 7.9392 10.685 2.2805 3.3289-2.3453 8.1371-3.4722 11.506-0.55431 3.7584 3.7299 5.9117-4.5214 10.676-3.6323 5.006-2.2091 9.6788 8.1071 12.165 0.41439 3.5928-4.0683 10.181-3.9872 14.27-0.76014 4.7444-1.3141 9.8797 0.1428 14.795-0.21455 13.684 0.3655 27.396-0.0521 41.061 0.71925 2.169 0.47456 2.7174 4.238 4.8786 0.84672 4.2708-3.6304 11.089-2.4074 14.114 2.2018 1.818 1.258 3.7573-4.1251 6.6809-3.7776 5.9005-2.7311 10.296 7.3514 15.007 1.345 4.8342-3.7304 9.6972 0.74867 13.587 2.7194 2.898-3.628 7.7341-6.3134 12.459-4.5373 2.4258-0.1558 5.0273 4.9956 6.7072 2.4023 2.83-5.0035 10.17-6.2884 15.045-3.6355 2.2995 3.4977 5.398 2.5198 7.1336-0.74741 4.0277-3.4306 10.317-3.6674 14.37-0.13779 3.9839 2.5864 5.8515-6.3851 10.899-5.465 5.1102-2.4836 9.9431 6.8864 13.052 0.21535 3.7119-4.5822 11.745-5.041 15.651-0.40871 3.9664 2.6986 5.4357-5.5492 10.103-4.8509 3.8409-1.1271 7.7328 0.11591 10.751 2.5782 2.9277-3.2257 6.0065-7.3961 10.931-6.838 4.4636-0.4509 9.2882 6.3751 11.754-0.44716 3.4734-5.6755 10.463-4.5832 15.479-2.0352 4.3606-0.98987 6.1669-6.897 11.007-7.4782 4.5005-1.7907 8.5446 2.6261 12.176 2.4518 1.4446-4.7572 6.0375-9.0196 11.306-8.5746 5.058-1.1228 10.027 6.7738 13.371-0.018 4.3802-6.7021 15.336-7.7605 20.552-1.5484 4.068 0.99691 7.2834-6.2645 12.347-6.3027 5.2385-0.83271 10.729 1.7972 13.141 6.541 3.0539 3.2928 6.95-4.538 11.273-3.5969 5.1745 0.38591 10.494 2.89 13.211 7.4994 3.0554 1.545 0.20871 8.2564 3.3737 7.5978 5.7427-1.0779 12.49-1.0751 16.764 3.5683 4.4897 3.4623 4.9418 10.012 3.415 15.047-1.9463 2.8595-3.237 6.3815 1.5758 6.2567 5.8116 0.71329 10.245 5.4593 12.146 10.742 0.94223 4.7041 0.394 10.169-2.5847 14.046-2.8568 2.025-5.8889 6.0713-0.34652 6.7621 5.6795 2.933 9.2538 9.2723 8.8784 15.665 0.58062 6.3711-4.6451 10.991-9.1234 14.636-1.694 4.4286 7.3203 7.054 7.3987 12.249 1.6504 5.9356 0.83634 12.912-3.4228 17.517-2.9841 3.0532-10.508 5.3797-4.0886 9.2073 4.7026 4.9869 6.8122 12.326 4.5173 18.921-1.0597 5.2869-5.3848 8.8802-9.9969 11.123-5.114 3.6127 3.8174 7.5919 4.0722 12.014 2.1942 5.5252 2.1432 11.946-1.0758 17.084-3.1224 5.5675-8.8159 9.4818-15.075 10.6-1.1099 3.7279 5.7204 7.1488 5.6571 11.836 1.9671 6.1822 0.30778 12.816-2.8404 18.261-3.7329 4.5891-9.2548 6.7934-14.636 8.7834-0.95181 5.3082 3.4648 9.5676 3.355 14.786 0.81685 5.1038-0.67396 10.186-3.8342 14.237-3.1522 5.798-9.9678 7.8774-16.153 8.1494-7.1249 0.70467 1.2433 7.5055-0.20002 11.594 0.37314 5.1063 0.0159 10.446-3.342 14.597-3.5015 5.6619-9.9856 8.8171-16.493 9.285-5.2598-1.1555-7.5646 3.7188-4.6036 7.81 1.8218 7.3317 0.60315 15.681-4.8079 21.271-4.9554 6.3273-13.274 8.4777-20.992 8.0218-2.4383-0.74561-3.7428 2.5162-3.3376 4.4573 1.1908 7.8327 0.2465 16.834-5.9091 22.485-5.2926 6.266-14.019 9.2135-22.011 7.223-3.5784-1.5764-8.8743-1.8732-7.5011 3.6187 0.3069 4.7794 0.0198 9.7503-2.7892 13.829-2.2462 4.4468-5.8913 7.927-10.397 10.024-6.6914 3.6828-14.718 2.3971-21.773 0.68186-4.8406 2.1032-0.58789 9.7232-3.0313 13.952-1.9855 8.9776-9.8086 15.457-18.299 18.08-4.9989 1.65-10.617 1.0679-15.699-0.0106-3.5925-1.8047-11.474-6.4708-10.852 1.1059-0.52189 5.6669-0.4466 12.03-4.8014 16.324-4.1889 4.6098-8.8035 9.1949-15.007 10.858-5.6711 2.3826-12.03 0.71375-17.73-0.69174-4.8627-0.56955-7.2725-6.2326-12.239-5.847-2.9406-1.05-1.5717 3.0273-2.4537 4.5498-1.937 10.884-11.032 19.615-21.465 22.516-7.6664 0.65731-16.122 0.52-22.434-4.5098-3.722-1.9673-7.3968-9.4559-12.119-5.8656-1.8224 4.0523-4.4314 7.7964-7.7171 10.873-7.6375 8.1928-20.527 10.623-30.585 5.6459-6.1817-2.7916-11.002-7.9339-14.196-13.826-4.9202-0.71958-5.354 7.575-8.9758 10.029-3.4091 4.3209-8.2416 7.1476-13.447 8.721-4.304 1.5051-9.1752 0.82186-13.644 0.46975zm10.434-2.2079c12.258-2.3189 22.453-13.901 21.692-26.618 0.61329-9.3247-4.5277-18.569-12.846-22.859-5.0027-3.0124-10.905-4.3056-16.666-3.1018-5.1395 0.41028-9.7678 2.8653-13.774 5.8796-9.9536 8.2698-12.977 23.851-5.8392 34.866 3.0086 5.1534 8.1463 9.0885 13.742 11.037 4.4589 1.378 9.1115 2.0275 13.691 0.79648zm-9.9532-3.7711c-4.9199-1.6276-9.9609-4.0866-13.127-8.3168-0.14573-4.0957 6.8517 3.243 10.041 2.196 4.8969 1.6693 10.149 1.29 14.628-1.4117 4.4677-2.0914 6.1292-7.0691 9.7084-10.167 0.97759-3.0606 3.4668-2.298 4.4344 0.13178 1.3599-4.3456 0.68496-9.5216-0.20342-14.062-1.5663-2.2066-0.31629-5.0003 1.4214-1.4399 1.2246 5.0288 2.9039 10.439 0.88686 15.499-1.1319 5.2659-3.5657 10.374-8.4966 13.059-4.2478 3.4522-9.3698 6.0435-14.994 5.0897-1.4427-0.0886-2.8991-0.20131-4.2999-0.57886zm-15.852-13.725c-1.4138-2.194 2.5738 0.91354 0 0zm-2.1616-3.8428c-0.25249-3.7308 3.3057 1.9741 0 0zm84.398 17.71c12.711-2.573 21.677-15.523 20.825-28.261-0.0117-8.0749-4.5933-15.644-11.192-20.121-5.6221-3.1859-12.377-5.1368-18.84-3.4645-5.1761 0.58965-10.181 2.7281-13.548 6.8119-5.4639 4.9158-8.8425 12.03-8.5582 19.439-0.48142 12.447 9.3946 25.224 22.157 26.077 3.0534 0.0847 6.1391 0.0314 9.1561-0.48156zm-9.4633-2.5699c-5.4173-1.3451-10.967-4.647-13.234-9.9331 3.4861 1.1151 8.0012 5.7949 12.726 5.9325 5.3418-0.0348 11.342-1.0662 14.651-5.7302 3.0135-3.6598 4.9596-8.0717 8.4524-11.361 1.0171-1.3663 4.3449 1.5352 3.205-2.1892-0.53823-4.5776-1.037-9.3328-2.9838-13.503 1.4362-2.2345 3.6866 5.1039 4.2833 6.7284 0.5692 6.992 0.41128 14.69-4.0134 20.532-2.1033 5.2096-7.6424 6.7022-12.337 8.7509-3.3774 1.4655-7.184 0.9308-10.749 0.77292zm-15.483-14.153c-1.0216-3.4564 2.2046 1.8454-2e-5 0zm-87.283 13.386c12.793-2.8929 21.474-16.231 20.278-29.073-0.0976-6.4723-4.2495-12.152-8.5897-16.619-4.3432-3.3217-9.3439-6.0779-14.95-6.3273-9.4012-1.2276-19.147 3.4039-24.193 11.423-7.496 9.9626-6.2 25.159 2.718 33.824 4.0424 4.2287 9.7772 6.6796 15.433 7.7297 3.1206 0.0811 6.268-0.22266 9.3036-0.95683zm-8.4758-2.0683c-5.1088-0.0938-9.9867-1.7851-13.597-5.5358-1.7306-1.8015-5.6781-6.4908-3.8784-8.1808 2.6306 4.6449 7.3249 8.4247 12.802 9.1981 5.6644-0.14845 12.295 0.37166 16.638-4.0121 4.457-3.2234 4.5516-9.342 6.8197-13.544 4.5045 5.2237 6.2842-3.583 4.8724-7.086-0.90153-2.5072-0.0291-6.7517 1.9204-2.1085 1.5963 8.0464-0.66092 16.603-5.3899 23.199-4.7761 5.5422-12.235 7.916-19.345 8.2603zm-19.671-16.409c-1.2595-5.3467 4.3386 2.8686 0 0zm-0.94381-4.543c0.54844-1.5341 1.0898 1.674 0 0zm197.08 18.677c10.951-2.3659 19.038-12.852 20.105-23.781 1.2158-8.1023-1.8765-16.68-7.8155-22.276-6.2966-5.2167-14.884-7.4332-22.957-6.2753-4.5347 1.7546-10.332 2.3712-12.992 6.8207-6.7131 6.7982-10.782 17-7.6592 26.424 2.3174 7.2163 6.7085 14.316 14.014 17.292 5.3056 2.945 11.506 3.4904 17.304 1.7958zm-10.119-1.8982c-5.431-0.77567-10.493-3.8217-13.071-8.7821 3.8392 1.3238 7.7694 6.7799 13.098 6.4166 8.0347 1.4977 15.511-4.5813 18.383-11.698-0.20507-4.49 3.0339-7.0217 4.39-10.816 6.7511-0.50702 1.3841-7.2041 0.73376-10.988-2.8351-1.2388-1.6628-4.6631 0.72647-1.8056 2.8127 4.2821 3.7788 9.7084 3.732 14.754-0.35461 6.5857-3.2543 13.272-8.4846 17.387-5.0913 2.7724-10.602 5.6521-16.473 5.9315-1.0112-0.13518-2.0228-0.2671-3.0344-0.39861zm-15.857-13.512c-2.1262-5.0011 3.5845 2.1814 0 0zm34.71-27.316c-0.11218-2.7909 2.542 1.8884 0 0zm-228.7 32.643c11.4-3.6191 19.181-16.047 17.365-27.912-0.70878-5.2522-2.3729-11.129-7.1319-14.115-3.4598-3.6309-8.1074-5.4991-12.856-6.835-4.7894-1.695-9.8106-0.81696-14.36 1.1388-5.8524 2.1597-10.671 6.9188-13.514 12.399-3.88 9.2891-3.1796 21.059 4.2234 28.441 6.3837 7.2628 17.16 10.143 26.273 6.8826zm-10.493-1.8686c-4.6976-0.35404-9.6228-1.2768-13.094-4.7851-3.3528-2.9596-5.6598-7.8924-4.9022-12.278 2.8288 2.189 2.135 9.6071 7.0896 11.087 4.8906 1.7512 10.09 4.2271 15.309 2.0407 7.2224-1.9398 14.03-8.5352 12.999-16.536 1.3575-3.1586 7.516 4.0136 6.7054-2.4362 0.24259-1.9043-3.0346-10.882 0.90525-7.184 2.2258 10.091-1.0988 22.231-10.754 27.286-4.2658 2.4578-9.3511 4.0882-14.258 2.8064zm-18.749-20.679c-0.45114-2.3321 2.2562 1.108 0 0zm-0.46544-4.299c1.8868-1.7329 0.91565 1.7462 0 0zm40.59-9.607c0.94415-1.7148 1.9905 1.8321 0 0zm259.77 26.645c7.687-1.6311 15.239-6.2399 18.224-13.813 2.9664-4.6792 3.4532-10.298 2.6888-15.666-1.0118-5.0348-2.4836-10.435-6.4056-14.05-3.8096-3.3446-8.7085-5.7506-13.673-6.6771-6.9584-0.17196-14.957-0.55388-20.244 4.8695-5.2694 4.2313-9.1823 10.268-9.6879 17.122-1.1849 5.3497 0.044 10.859 2.8521 15.508 2.306 4.1791 5.0629 8.3606 9.7955 9.9229 4.9661 3.1869 10.699 4.2585 16.451 2.7837zm-6.1448-2.7238c-4.8244 0.10372-9.0862-2.0995-12.368-5.5388-4.2098-3.7645 3.6534 0.41419 5.1308 2.0548 1.251 1.5692 3.0756 1.3051 4.8604 1.1686 4.8145-0.0811 10.062-0.13552 13.709-3.8181 4.4833-3.6523 8.0313-8.9088 7.869-14.889 0.94474-3.0354-2.4484-9.9829 3.1352-6.922 1.9763-2.1836-5.029-10.634 0.41297-6.8712 2.0266 4.7086 2.7022 9.713 2.0134 14.834-0.83714 5.335-3.2941 11.037-7.3921 14.634-3.8875 2.8962-8.5507 4.8687-13.324 5.5946-1.3531 0.0463-2.7044-0.0882-4.0463-0.24674zm-17.482-10.682c-3.8186-4.1584 4.1062-2.0909 1.6855 1.0945-0.65594-0.20514-1.1542-0.68938-1.6855-1.0945zm34.028-28.172c0.44316-3.5812 3.6344 2.1463 0 0zm-203.22 31.537c3.4993-6.3257 9.6963-11.13 16.478-13.566 9.086-1.9787 19.537-1.0721 26.6 5.5717 4.0948 2.0857 7.2535 11.999 12.376 6.0748 2.8223-4.523 6.3647-8.8331 11.43-10.935 4.7101-2.9394 10.258-4.9856 15.904-4.4024 5.3199 0.58571 11.422 1.0704 15.17 5.3731 3.1401 1.8466 7.2059 10.755 10.928 5.7356 2.7847-4.9955 5.0624-10.768 10.442-13.584 4.3574-2.7989 9.1091-5.282 14.422-5.2708 6.3694-0.61199 13.202 0.96627 18.226 5.0524 3.2085 3.6868 10.172 4.7508 9.862-1.9787 1.4024-7.953 7.741-14.089 14.337-18.169 6.2895-2.9876 13.897-4.6098 20.537-1.8506 4.5442-0.87226 9.2145 6.8969 12.42 3.6198 0.0662-5.9491-0.16774-12.313 3.3535-17.47 3.2924-4.9706 7.9306-9.3808 13.429-11.645 4.2412-1.8365 9.0503-2.5015 13.655-1.4596 3.5839-0.0569 11.754 6.2447 11.598-0.54285-0.55675-8.4462 2.8928-17.607 10.501-21.958 5.4454-4.1993 12.74-5.4474 19.332-3.6819 3.6422 1.0691 7.8503 0.086 6.2042-4.5666-1.1163-11.719 7.5516-23.859 19.474-25.414 3.9322-1.7326 11.416 1.6575 13.266-2.4563-1.5056-5.9652-0.90797-12.692 1.8238-18.228 4.0049-6.6393 11.178-11.839 19.185-11.642 2.4509-0.13698 4.9067-0.13391 7.3601-0.19582-0.0494-4.6257-2.9457-8.8146-2.1338-13.557 0.16812-6.8631 3.8116-13.445 9.8591-16.84 4.2764-3.5234 9.8714-2.9806 14.855-3.9571-1.9498-5.0846-4.7209-10.844-3.2527-16.738 1.4952-7.4731 7.7549-13.629 14.837-16.058 2.7474-0.21404 9.0471-0.94608 4.549-4.3923-3.2095-4.7567-6.0613-10.648-4.2531-16.486 0.63642-5.8039 3.7858-11.187 8.861-14.189 2.6626-2.5466 13.263-3.0319 7.3092-8.0685-3.289-4.2166-4.5089-9.5226-3.9712-14.789-0.2662-7.8482 6.4781-13.853 13.21-16.612 4.4264-3.4687-4.625-7.4636-4.2698-11.988-0.58891-3.8246-0.28016-7.7114-0.35781-11.567 2.7587-4.4326 6.0569-8.6897 10.808-11.111 1.8054-3.6128-4.8942-6.3876-5.277-10.44-2.8859-7.7362 0.0999-17.502 7.6929-21.338 3.0501-0.90518 4.9167-3.3674 0.823-4.7301-6.271-4.5628-9.1252-13.663-5.5945-20.758 0.45126-3.3833 8.1521-6.7123 5.81-9.2078-5.3737-1.591-9.7763-6.971-10.293-12.597-1.4475-4.7101 1.7514-9.6254 3.0403-12.998-6.3731-0.12637-12.118-3.9248-14.489-9.9129-2.7426-2.433 1.3553-10.525-4.1162-7.6219-5.4373 0.6391-11.848-0.63048-14.61-5.9094-2.752-5.3522-7.0674 3.4507-11.488 2.6003-5.0401 0.5998-9.1727-3.0966-13.098-5.3795-2.8683 3.549-6.8175 7.9759-12.171 7.1096-4.4595 0.66086-8.9502-4.382-11.944-4.4404-2.5552 4.3961-7.708 7.9782-13.011 7.0506-3.8535-0.27634-8.6492-5.7139-10.219 0.67162-2.4922 5.3694-8.9973 6.1851-14.135 4.8239-3.1841-2.2556-6.8267-3.162-8.468 1.2063-3.2601 3.4611-8.7275 4.9442-12.831 2.0202-5.1851-4.9134-6.6084 3.8371-11.296 4.7774-4.8482 2.183-9.3339-2.5971-13.482-2.0281-2.8631 3.9052-7.3218 6.8674-12.346 5.4668-3.9012 0.0914-7.3822-6.9729-9.3457-0.50317-3.4334 4.4385-10.17 4.9969-14.536 1.6263-4.257-3.6973-5.4024 5.9272-10.579 5.1643-4.7201 2.6398-8.8924-3.1846-13.084-1.5281-2.2098 3.8492-6.8214 6.6431-11.232 4.7331-4.4388-2.0228-8.4103-6.3484-11.449 0.12164-4.5581 3.582-12.135 2.582-15.305-2.3083-4.1396 0.45636-7.4434 6.963-12.859 4.976-2.7443 0.15596-5.3591-5.7043-7.3449-3.0296-3.2922 3.3167-8.8342 5.9829-13.189 2.96-2.1843-0.77365-3.4992-5.032-5.5432-1.8778-3.3946 2.9339-9.7511 4.4505-12.938 0.42335-3.6321-5.5934-7.1509 3.591-12.35 1.8581-4.0763 0.48631-6.4282-5.1508-10.473-2.4775-5.3426-1.8536-11.202-0.75228-16.757-1.1113-10.631-0.0816-21.278 0.0832-31.885-0.58846-3.9981 1.7905-8.0874 0.3578-11.967 3.0188-4.7805 2.8007-9.6871-6.9122-12.508-1.0571-3.246 4.5156-10.057 3.6743-14.347 1.1752-3.9534-0.29687-6.5066 5.4099-11.165 4.1773-4.1793-0.0541-8.4624-7.3479-10.929-0.8898-3.6375 3.0613-10.029 3.9062-13.456 0.0705-1.5958-0.71248-3.3087-4.8886-4.7348-2.0565-2.3808 3.3733-6.4893 5.3754-10.604 4.1591-3.2918 4e-3 -5.5994-3.7065-7.904-4.6824-2.2348 2.635-4.6213 5.762-8.5159 5.47-5.8726 1.627-10.134-3.9045-13.202-6.7774-2.8057 4.117-8.0504 5.71-12.759 4.3091-3.8583-0.55582-6.1723-3.7992-8.2445-6.7592-4.0994 4.5437-11.496 5.1307-16.307 1.3228-3.1669-2.1177-6.0072-8.4713-9.224-2.8177-3.6049 2.769-9.1528 2.9195-13.142 0.85827-4.6114-0.40407-5.3337-11.36-9.4482-5.2823-3.4645 2.9757-8.7278 3.2178-13.014 2.1777-4.499-1.056-7.4963-4.8878-9.3977-8.8539-3.5644-2.063-7.3123 4.5096-11.835 3.8903-6.0047 0.31396-11.787-4.3442-13.507-9.9696-1.9477-5.9511-6.5523 3.88-10.527 3.696-5.235 2.3644-11.618-0.40837-15.091-4.5793-1.9567-3.6608-4.9603-7.9732-8.159-2.6523-3.6902 3.743-9.1499 4.525-14.022 2.9063-4.4996 0.0597-7.4782-7.6605-10.642-6.2054-1.9173 6.8719-7.4252 13.36-15.021 13.561-4.8134 2.2084-9.7207-4.0905-13.231-2.5639-0.99871 4.947-2.662 10.27-7.3743 12.918-3.4657 3.2393-8.4356 2.6488-12.552 3.9777 0.82795 3.6637 5.5941 6.7977 5.0721 11.585 0.63474 7.3581-4.3616 14.836-11.265 17.349-5.9216 0.68594 4.1805 4.9246 4.2344 8.2004 2.7552 4.6432 2.9672 10.595 1.608 15.697-1.8235 5.0476-6.4202 8.1327-10.706 10.942 3.598 1.9434 8.1547 3.4366 10.291 7.4729 5.1975 6.9301 5.1418 17.965-1.9091 23.643-6.3487 4.8626 5.574 7.0643 7.2734 11.4 3.323 4.3131 4.1037 10.265 3.2971 15.524 0.31377 4.3184-7.5967 8.1879-3.6101 11.31 8.2759 1.5994 15.062 8.776 16.225 17.15 1.1728 5.9854-1.1677 12.216-4.9026 16.8 2.2051 4.3221 9.4539 3.3311 12.245 8.0104 5.1044 4.201 7.2582 11.39 6.5175 17.799-3e-3 5.2868-5.3575 9.2188-5.9014 13.725 4.7992 2.464 10.755 2.9548 14.451 7.3445 3.7918 4.3596 5.9856 10.183 6.3771 15.903 0.0187 4.849-4.7215 9.2-4.4272 13.452 4.6769 0.91269 9.8142 0.86718 13.803 3.9295 7.9748 5.4612 12.141 16.681 8.0375 25.72-3.4043 5.2914 6.5061 2.7581 9.6051 3.7382 4.1922 1.3258 9.8417 1.5681 12.56 6.2505 5.9439 6.5823 8.3074 16.289 5.8057 24.83 8.2917-0.53948 17.688-2.6334 24.925 2.6778 5.9558 4.1554 9.8431 10.864 10.355 18.115 1.5815 3.0704-2.7959 9.9644 1.7168 10.137 6.3994-1.5078 13.27-4.9242 19.722-1.6035 9.5535 2.6723 15.914 12.206 16.32 21.874 0.13416 2.0355 0.22814 4.0734 0.34362 6.1099 4.4474 1.0939 7.2439-4.0626 11.582-3.9459 7.3257-0.95712 15.424-0.30052 21.327 4.5929 7.1128 4.2842 10.09 12.988 10.911 20.844-0.65256 6.2724 6.425-0.0113 9.0904-1.0762 5.0564-3.3872 11.598-2.979 17.453-2.9703 6.1596 1.0984 11.982 4.6304 16.044 9.3856 3.0135 3.9339 5.311 8.5899 5.9003 13.534 3.002 4.1512 6.3031-4.6255 9.4906-5.9787 5.8756-4.3755 13.684-5.1709 20.808-4.9958 4.6035 2e-3 8.8 1.8904 12.621 4.2368 5.0525 3.7945 9.0505 8.9672 10.829 15.079 0.87634 2.5681 3.1215 3.5245 4.7185 0.80314zm-126.78-3.8888c6.979-1.4545 11.944-7.4934 15.157-13.486 2.6723-5.9368 3.1432-12.994 1.2609-19.203-4.2159-10.541-16.343-17.672-27.56-14.83-5.1804 1.3838-9.7768 4.1827-13.385 8.1435-3.7989 4.5225-5.1846 10.449-5.91 16.156-0.26892 8.2664 4.5012 16.586 11.491 20.904 5.7091 3.1465 12.647 3.7911 18.946 2.3147zm-14.14-2.0213c-3.8313-1.7677-8.467-5.0588-9.5234-9.1562 3.0932 0.87769 5.9877 4.9333 10.363 4.4281 5.8764 0.79673 12.271-0.24656 16.573-4.6503 2.9768-1.8709 2.6576-8.8361 7.2095-5.5078 6.1348 0.40088 1.5292-11.212 4.9576-10.34 1.1097 6.7381-1.8353 13.674-6.0366 18.85-4.2355 5.2706-11.183 6.6344-17.593 6.6271-1.9838 0.0414-3.985 0.0677-5.9499-0.25116zm-11.535-12.856c1.2154-2.5013 0.97886 2.4113 0 0zm397.83-1.1627c6.4933-3.8451 12.389-9.9159 13.908-17.508 0.19473-5.6302 1.0154-11.747-2.3396-16.688-2.9041-6.0074-8.7079-10.026-15.026-11.791-5.47-2.4253-11.416 0.16788-16.743 1.7428-5.4392 1.3158-9.4639 4.8801-10.64 10.355-4.1488 8.0321-3.8974 18.233 1.4994 25.634 3.9153 5.8078 10.353 10.199 17.561 9.9639 3.9602-0.0489 8.2581 0.51449 11.781-1.7088zm-14.506-0.83851c-2.3386-0.62865-11.019-2.8332-8.315-5.327 2.2934 0.68797 3.4387 3.392 6.1517 2.4805 4.6792-0.25296 10.08 0.78653 13.687-2.9571 3.9573-2.8231 6.4965-7.0098 7.5603-11.705 1.9726-2.6038-2.1326-9.6597 1.5868-9.12 1.5921 3.8034 4.6386 0.11927 2.5572-2.522 0.75633-4.7918 3.5245 4.7269 2.9375 6.8816-0.71325 7.2878-3.0274 15.352-9.8332 19.225-4.6685 2.1075-9.654 4.4337-14.928 3.312l-0.70883-0.12138-0.69517-0.14748zm-11.432-7.9421c-2.7829-5.2437 3.4969 0.86746 0 0zm31.091-27.686c-1.7285-1.21-3.8143-4.5815-0.13172-2.4774 3.2705 0.0559 5.616 7.8674 1.1356 3.4192l-0.48391-0.44322zm-418.83 22.872c7.7434-1.9754 12.948-9.6093 14.57-17.11 1.5511-7.0983-0.71668-14.804-6.1537-19.694-7.4752-7.6996-21.22-8.5769-28.901-0.68919-4.7308 4.1001-8.1219 9.9812-7.7636 16.406-0.62423 6.181 2.4151 12.132 6.5391 16.515 3.9282 3.0437 8.3818 6.3793 13.668 5.3728 2.6878-0.12685 5.3998-0.25629 8.0414-0.80132zm-11.048-1.5484c-2.7896 0.18649-9.9536-2.9977-7.7403-5.1562 4.2093 4.2212 10.563 2.6925 15.736 1.8204 4.4466-2.571 7.7135-6.8575 8.8709-11.866 1.9638-0.83221 6.0634 3.0101 5.6924-1.7924 0.54337-2.8275-1.5731-8.2622 0.77982-9.4736 2.0792 4.7385 0.93756 10.501-0.62494 15.288-2.936 4.7685-7.2828 9.0877-12.573 11.138-3.3884 1.1261-6.7253 1.0131-10.14 0.0418zm-11.806-8.5964c0.16497-5.4634 3.0018 1.9807 0 0zm471.58-6.3764c4.7433-0.94341 8.7211-4.0573 11.901-7.5444 3.4081-5.1374 5.6987-11.525 4.1425-17.71-0.4272-9.0297-8.04-16.575-16.908-17.578-8.8741-1.6686-19.084 2.1119-23.176 10.5-6.0694 9.7406-2.5931 23.92 7.3726 29.7 4.9931 2.7824 11.049 4.274 16.669 2.6318zm-12.811-2.4645c-2.3811-0.17956-7.7884-5.0865-2.5049-3.2886 4.8079 1.9718 11.227 3.7836 15.605-0.11488 5.4842-4.4218 8.9572-11.774 6.9294-18.804-1.4026-3.9951 2.8465-2.9194 3.2586-0.0117 1.3279-2.081 0.6023-6.8916 2.2459-1.9675 1.1885 5.8512 1.4836 12.682-2.8665 17.377-3.5421 3.9835-7.8408 8.3945-13.657 7.9565-3.0433 0.082-6.2548 0.478-9.01-1.1469zm-7.6856-7.328c0.0209-1.933 1.7325 1.8 0 0zm30.478-21.228c-1.8057-1.7456-5.0289-6.6771-0.6575-2.9038 1.1066 0.55582 3.7497 6.8322 0.6575 2.9038zm-7.0756-6.2264c2.7648-2.6397 0.63024 2.3751 0 0zm-487.98 24.13c7.7203-3.8837 14.105-11.79 13.679-20.78 0.36307-5.4608-1.8308-11.176-5.6096-15.108-4.4456-3.3374-9.7437-6.6447-15.553-6.0204-6.0748-0.11043-12.187 2.0453-16.235 6.6974-7.6031 7.4864-8.2931 20.663-1.1841 28.716 4.6514 5.8863 12.341 8.9417 19.763 7.6812 1.7449-0.19914 3.5276-0.45118 5.1399-1.186zm-14.021-1.5136c-2.5269-0.37189-8.0334-4.833-6.548-6.0767 4.0866 3.9533 10.072 3.1716 15.326 3.4453 5.5987-1.1454 9.0038-7.0016 10.155-12.238-0.25462-2.3584 2.2267-4.9962 2.8038-1.282 4.1681 3.2011 2.7957-5.8689 2.9205-8.3029 0.1582-1.9438-5.7113-7.3141-2.347-7.2856 3.7111 3.7449 4.2888 9.8089 3.9021 14.816-1.445 6.9624-5.8268 13.789-12.41 16.812-4.4308 0.94832-9.4108 1.5072-13.803 0.11131zm-10.291-7.4646c-1.7212-3.962 3.8438-1.3115 0 0zm546.53-7.651c11.939-3.6942 19.423-19.27 13.304-30.55-2.5602-4.6645-6.0606-9.1335-11.34-10.799-10.98-4.583-25.055 1.5738-28.965 12.886-3.8022 9.4842 0.47852 21.623 9.7513 26.203 4.3563 3.1909 9.8912 3.8979 15.077 2.7524 0.73088-0.13169 1.4572-0.29126 2.1723-0.492zm-10.042-1.4555c-2.9623-0.52429-9.4257-2.5253-8.6765-5.219 4.2146 2.3865 9.3108 5.0207 14.202 3.0278 6.1185-1.5435 12.217-6.6296 11.862-13.445 0.0876-2.7836-0.081-5.5658-0.13976-8.3483 5.196 0.0323 1.4997-6.8894-0.79267-8.8909-2.7479-1.5717-2.1318-4.8404 0.7272-1.8438 4.2144 4.7232 5.8713 11.275 6.1061 17.46 0.01 5.5938-3.1344 10.11-7.3776 13.486-4.0481 4.0396-10.519 4.7422-15.91 3.7738zm-13.035-9.8462c-0.1122-2.7909 2.542 1.8884 0 0zm24.609-26.216c-1.6056-4.2588 4.0302-0.84823 0 0zm-560.66 21.975c6.2528-1.5369 12.049-5.6711 14.05-12.02 2.1436-5.8055 2.9929-12.646-0.46426-18.154-2.4706-4.6839-7.3179-8.1484-12.354-9.6128-6.4132-1.7149-13.539-0.0907-18.215 4.7062-4.9577 4.2184-8.2282 10.534-7.4436 17.167 0.22272 9.2272 7.8459 17.614 17.14 18.332 2.4958 0.46838 4.8827 0.60073 7.2874-0.41927zm-6.0044-1.6328c-3.751-4.3415 6.4613-1.7427 8.1464-4.4829 3.1012-3.2736 6.6769-7.498 6.0947-12.308-1.3398-3.6499 0.80645-4.634 3.8033-4.8314-0.41343-4.8482-4.1624-8.1547-7.698-10.962-2.9223-2.0769-8.3292-1.406-10.313-3.2575 4.4033-1.2867 9.0476-0.12831 12.5 2.8283 3.7951 2.9664 6.9856 7.1697 7.6136 12.097 0.17654 2.0426 1.7619 4.2655 0.23299 6.09-2.2648 4.4467-4.3015 9.4014-9.0799 11.726-3.313 2.1785-7.1707 5.0894-11.3 3.1018zm-6.3734-1.4374c-1.8725-0.96699-6.2722-1.7216-3.8977-5.008 2.8728-0.96578 2.0143 4.732 5.6816 3.734 4.5724 1.422-0.20583 3.6809-1.7839 1.2739zm605.3-18.229c8.067-3.9895 11.372-13.753 10.237-22.234-0.5341-2.3417-2.3304-8.9779-5.1337-7.0101 1.8224 4.3887 4.4206 8.774 3.4899 13.774-0.81785 5.154-3.0387 10.646-8.187 12.816-3.6028 2.4494-7.9655 3.1534-12.044 4.107 3.6349 1.0243 8.255 0.32863 11.638-1.4528zm-16.672-0.38297c-2.1439-1.815-6.2047-1.3496-1.7481 0.62978 0.74882 0.156 4.7528 1.055 1.7481-0.62978zm10.42-3.4473c4.6944-2.115 9.228-6.4799 8.9058-12.027 0.67174-1.4695-1.0307-5.613 0.88879-5.4882 5.9296 0.53135-0.31974-7.2578-2.3052-9.103-1.2661-3.9726 7.0421 2.2733 2.9002-2.4402-4.7441-4.2479-11.481-6.4645-17.726-4.5642-5.4794 0.72859-9.6663 4.5072-12.878 8.7571-4.254 6.0688-4.6783 14.579-0.5681 20.862 0.5028 2.13 5.0471 6.1825 2.6756 1.6188-2.1571-5.5067 2.6712 0.22198 4.3194 1.5431 4.016 2.9534 9.3713 2.5681 13.788 0.84196zm-20.099-8.1852c-1.4999-2.0635-1.0967-6.7563 0.61596-2.2239 1.3922 1.4161 2.3348 6.2966-0.61596 2.2239zm24.593-20.895c3.9591-3.8486 2.0711 3.6085 0 0zm-3.1956-1.5346c0.34882-3.9026 4.0691 1.1553 0 0zm-612.23 19.701c4.8179-1.7173 9.4294-5.4504 11.592-10.046 2.5882-7.4679 1.4941-16.665-4.3043-22.354-4.926-4.5255-12.367-5.614-18.488-3.0515-5.0926 1.6487-9.5779 5.1056-11.44 10.266-2.469 5.1464-1.7311 11.598 0.70809 16.63 3.0747 5.1764 8.3348 10.086 14.823 9.3248 2.3791-0.0486 4.802-0.13331 7.1089-0.76869zm-8.0932-0.93827c-0.72815-4.2232 8.04-2.0913 9.9864-6.0302 3.9934-3.3681 3.0429-8.8415 3.3389-13.479 1.2756-0.18832 4.3113 1.2724 3.222-1.1318-0.90072-4.4131-3.8462-8.5709-7.6474-10.962-2.2554 0.1113-7.1834-3.5873-2.3613-2.6066 5.1508 1.3408 8.474 5.1057 10.683 9.6859 2.5713 5.3457 1.638 11.407-0.24884 16.797-3.5054 5.2341-9.8024 8.7108-16.168 8.0325zm-6.7017-2.553c-2.4131-4.9401 6.3722 1.0969 0.76524 0.43173l-0.76524-0.4318zm654.88-17.843c2.887-1.435 7.0912-3.6589 7.4499-6.8038-3.9846 3.2634-8.5274 6.4015-13.991 5.7469-4.989 0.66062-9.789-0.86989-13.531-4.2106-2.869-2.6968 2.06-3.053 2.9229-0.27307 5.4655 3.8795 13.554 2.3521 18.384-1.9376 4.2312-3.3865 2.0634-9.4714 5.8773-12.787-0.66059-2.304 0.4579-6.1765 2.3936-2.4619 1.0878 3.011 0.41499 7.044 1.2743 9.6493 1.8086-5.7717 0.37472-13.135-4.686-16.83-3.5135 2.4087-3.5898-0.43736-1.877-2.1588-3.9918-2.5627-9.1572-4.1489-13.907-3.1803-4.85 1.0971-9.7082 3.4107-12.123 7.9973-3.5044 3.8836-4.044 9.2562-3.044 14.209 1.9484 9.8572 13.419 16.992 23.063 13.841l0.84013-0.35706zm-23.07-9.9209c0.36429-4.6037 3.5626 2.0818 0 0zm28.581-17.533c1.94-2.9037 1.698 2.8053 0 0zm-673.21 12.729c-2.9124-1.2398-1.4261 0.74288 0.51748 0.30399zm9.5139-0.99344c2.1445-0.28684 7.763-5.8047 2.767-2.9631-2.1908 2.1668-7.6567 2.8381-8.608 4.3992 2.0526 0.20601 4.0264-0.57218 5.841-1.4361zm-12.845-0.57237c-1.0534-4.0887 6.9139-1.5697 9.0352-4.1746 5.4856-1.6264 6.8706-7.1025 7.1683-12.12-5.7e-4 -3.9366 3.9762 1.7688 3.5618-2.3449 0.46042-4.7564-1.356-9.8397-6.0643-11.754-1.4899-0.71932-9.3875-3.0925-4.2142-3.2989 3.2736-0.18243 7.7393 5.5564 9.3262 3.4748-3.9152-4.2372-9.9418-6.2175-15.613-4.8953-6.5584 0.8389-12.529 5.4823-15.136 11.503-1.9806 5.8892-1.7252 12.809 2.4721 17.712 2.5925 2.9085 5.9619 6.5724 9.9257 6.8097l-0.46247-0.91111zm-6.0137-3.9315c-1.8867-4.7646 5.1381 0.71166 0.59458 0.4479l-0.59458-0.44784zm28.572-4.3346c2.7042-5.9515 2.7261-13.595-1.1868-19.015-4.9135-2.8246 1.162 4.9147 0.6829 6.9273 0.87189 5.6271-0.46071 11.498-3.5274 16.25 1.848-0.099 3.1533-2.649 4.0313-4.1627zm669.06-10.959c8.8408-3.8082 13.847-15.308 9.7348-24.164-3.602-6.9491-11.965-11.572-19.768-9.7104-7.1146 0.89185-12.409 7.5385-13.98 14.215-1.1156 5.2888-0.12531 11.46 3.6438 15.468 2.8492 2.0115 0.57745-4.4937 4.0853-1.0333 3.3643 3.5814 9.1585 3.5542 13.488 2.1042 4.0288-2.3974 7.4886-8.0302 5.5855-12.738-0.38366-2.9112 5.4542-0.0422 3.4224-4.076-1.5772-2.2017-0.87196-5.9409 1.1548-2.0689 1.9437 4.9886 1.6274 11.252-1.3736 15.774-3.4497 4.24-8.9291 6.7878-14.426 6.1251-2.2861-0.0161-8.059-0.25841-2.8947 1.143 3.7179 0.90753 7.8198 0.4486 11.327-1.0385zm-21.225-7.6456c-2.5777-3.8053 3.8312-1.5598 0.99157 0.54403l-0.45344-0.11735-0.53814-0.42671zm24.402-18.638c1.7687-1.9331 1.8428 1.8791 0 0zm-704.68 7.7238c-2.683-0.39466-7.0418-4.2895-1.6759-4.0205 5.2482-0.35101 10.947-2.3123 12.317-8.0401 1.1166-3.1121 0.80979-9.9453 5.0439-5.5467 1.3029-5.9662-2.3311-13.076-8.5372-14.442-1.3634-3.4935 5.3933 0.35399 6.6857 1.5669 2.9138 0.31913-3.1117-4.2026-4.7853-4.2446-4.8932-0.88124-10.455-1.3329-14.973 1.177-9.6533 4.4996-12.866 17.984-6.7704 26.576 2.6888 4.2096 7.301 7.4106 12.427 7.2455zm-8.6294-4.8101c-2.1091-5.8032 5.9312 1.3059 0.49863 0.62818zm16.447 4.291c7.3208-3.0383 12.844-10.589 11.979-18.72 0.31602-2.5756-2.0528-9.3772-3.5734-8.3764 2.1477 4.9561 3.1685 10.212 0.60419 15.299-1.2202 5.056-4.8486 9.5437-10.227 10.245-2.2051 0.5733-6.3271 3.4496-1.5295 2.3178 0.93333-0.18361 1.8544-0.43433 2.7464-0.7656zm706.15-17.492c4.8276-1.1265 9.2319-4.6399 11.329-9.1233 1.0001-2.2312 0.9862-4.8847-0.74958-1.4552-2.6663 4.4195-6.664 8.6736-12.183 8.8627-2.5074 0.53938-10.534 0.78476-9.58-1.8566 4.712-0.45492 10.731 1.691 13.884-3.1139 4.1666-3.0114 1.9886-9.2498 4.6819-12.044 5.2411 0.46404-1.5085-9.1865 3.0833-5.3481 3.9002 5.5456 1.0773-3.9138-1.1357-5.154-3.7782-4.1982-9.4423-7.0276-15.184-6.0861-6.6739 7e-3 -12.428 5.1147-15.34 10.78-1.4672 5.8106-1.7696 12.771 1.9066 17.864 4.529 5.6237 12.244 8.5004 19.289 6.6739zm-16.2-6.4658c-1.8086-3.3789 5.3331 1.684 0.67333 0.58244zm29.488-10.239c-0.65138-5.8888-2.6122 7.4825-0.20717 1.5661l0.15152-0.78209 0.0557-0.78397zm-732.94-3.0744c2.4464-0.23782 4.4405-3.2467 0.67295-1.7053-2.1417 1.5231-8.4864 0.41569-8.6671 2.315 2.4842 1.124 5.5025 0.0635 7.9942-0.60962zm-12.004-1.9976c2.8783-2.2814 9.1873-0.57052 12.619-4.1061 4.9098-2.1681 1.4154-10.527 7.3338-10.233 2.5453-5.2042-2.9184-11.043-7.2005-13.686 0.39329-5.0113 7.205 4.9197 7.4744 2.5856-2.8842-5.216-9.3758-6.446-14.828-6.6232-12.473 0.34983-20.868 16.424-13.816 26.792 1.6136 1.7214 6.5178 8.8227 8.4183 5.2708zm-4.2913-1.8793c-3.1101-5.6778 6.2685-0.10248 0 0zm22.935-0.45829c2.9488-1.8842 1.1845-3.711-0.77664-0.79839-2.5336 2.6863-1.6673 3.3464 0.77664 0.79839zm4.2176-6.6263c1.7049-2.512 0.41949-7.2564-0.49117-1.8404-0.52161 1.0689-1.2421 4.6946 0.49117 1.8404zm0.42502-8.5691c-0.78824 0.39307 0.42467 2.462 0 0zm722.89-0.057c3.9381-2.0708 10.016-6.9536 8.8009-11.35-2.4597 4.8624-6.1792 9.4556-11.869 10.467-3.3738 1.5172-11.308 1.5331-11.47-1.9351 4.7527 0.85716 9.849 0.41913 13.492-3.1388 3.6672-2.4647 5.7433-7.8947 4.3017-12.284 0.93114-1.6214 5.7421 1.4828 3.6671-2.4774 0.13283-2.2527-6.7061-6.0863-1.5432-4.5814 2.6097 1.3062 2.261 7.0246 4.8776 6.8556-1.212-7.9497-8.564-15.087-16.903-14.535-5.3915-0.59957-10.523 1.949-13.778 6.1915-4.2984 4.6027-4.88 11.439-2.7551 17.173 2.8085 9.1401 14.741 14.027 23.179 9.6144zm-18.535-4.6616c2.2357-3.674 2.2349 3.9154 0 0zm-727.48-13.63c5.8232-2.6884-9.7792 0.64898-2.2691 0.60144 0.77597-0.1114 1.5434-0.30183 2.2691-0.60144zm-7.1767-0.19344c-2.0102-0.51217-7.266-3.8636-2.3906-3.8087 5.2234 2.0692 11.695-1.7814 12.137-7.4628-1.7772-4.9343 6.3746-0.47391 4.0779-5.3824 1.4063-4.1089-5.2137-7.6532-3.8958-10.151 5.556 2.4198 5.7314 8.7076 6.8087 13.77-0.0021 2.8959-4.9894 8.785-2.9969 9.6694 4.188-4.1523 5.0967-10.702 3.8662-16.246-1.909-4.5056-5.5304-9.3203-10.854-9.4984-8.2795-2.5769-18.287 3.4562-18.997 12.29-0.52143 4.6606 0.51877 9.512 3.8776 12.957 1.7991 2.2446 5.9305 4.7895 8.3668 3.8618zm-8.3269-5.3361c-1.865-5.4224 6.2739 1.0598 0.6274 0.6545zm766.61-13.53c4.0269-1.4152 8.6203-5.7478 8.6528-9.5203-3.6038 3.4676-6.602 8.4102-11.97 9.1607-3.0939 2.0509 2.8975 0.54025 3.3167 0.35952zm-15.373-4.8581c2.6298-2.524 7.429 2.5363 11.364 0.7869 5.4147-1.0741 6.0173-7.4827 8.2329-11.06 3.3399 1.0651 2.6761-1.593 2.6788-3.9278 1.0777-2.6491 2.3934-4.7973-0.99093-6.9833-3.3407-4.0963-8.732-4.2437-13.578-3.8769-12.122 0.40358-17.931 18.504-8.4335 26.01 0.50176 0.28965 0.816-0.71617 0.72594-0.94909zm-1.7047-1.1827c-1.3545-3.9221 4.8072-0.14405 0 0zm-1.4242-3.3456c-0.92627-3.0692 2.8569 1.0069 0 0zm22.997-13.577c0.68408-2.9586 2.7779 1.746 0 0zm-761.22 6.9591c9.4384-2.5181 14.257-14.996 8.9011-23.172-4.1745-6.7014-13.609-9.5315-20.504-5.2831-8.4397 4.0355-10.343 16.069-4.7041 23.192 3.5125 5.0219 10.57 6.8621 16.307 5.2628zm-8.7188-2.3952c-2.8772-0.64652-9.126-6.0147-6.1466-7.7246 1.4301 4.1556 6.7452 5.6368 10.818 5.3359 5.1501-0.81613 5.7394-6.7052 7.9778-9.6734 5.5688 1.1064 1.1146-8.5476-1.0517-10.516 0.6368-4.5131 5.5983 2.9317 5.5696 5.3147 1.5033 5.3783 0.91657 12.184-4.2595 15.416-3.4542 3.4251-8.5816 2.6377-12.907 1.847zm768.55-16.361c4.7087-1.2258 7.696-5.2116 9.5426-9.4424 1.2766-5.0783 1.1158-11.317-3.1761-14.981-3.5061-1.6262-6.1192-5.3125-10.902-4.6423-4.7012 0.18295-9.6864 1.9824-12.011 6.3604-4.3494 4.7758-3.3873 12.133-0.42348 17.356 3.8847 4.8016 10.999 7.2998 16.971 5.3491zm-6.5632-1.1723c-3.8879-0.24329-11.553-5.7848-8.8854-9.0091 2.6131 3.876 6.826 6.8717 11.686 6.7909 5.2877 0.70097 7.5357-6.1457 6.3151-10.374 0.52989-1.1899 5.2012 1.4635 3.9725-2.4507 4.5381-0.39725 2.2279 8.3728-0.44057 10.549-3.2135 3.4622-7.935 5.3235-12.648 4.4946zm-9.603-10.856c1.8644-2.6245 1.6747 2.0062 0 0zm20.829-8.1495c0.79907-5.3274 4.987 2.8551 0 0zm-764.18 1.9501c5.8473-3.8006-4.8076 0.79311-7.0962-0.0458-2.4083 0.84685-9.7521-1.905-5.5782-3.7023 4.8721 1.1918 11.051 0.50641 12.332-5.3465 0.75741-2.7556 2.5481-4.4794 5.1196-4.4705 1.5118-4.3413-4.0862-7.7755-3.6027-11.099 2.9185 1.5493 4.5804 0.0678 1.118-1.4795-6.3232-3.819-15.508-3.7727-20.436 2.3463-7.3385 7.7387-3.3414 23.098 7.5766 24.96 3.4685 0.4757 7.4278 0.65294 10.566-1.1636zm-17.738-5.5238c-2.1644-4.7694 5.6396 1.5561 0.69925 0.61011zm24.311-1.0234c2.3098-5.0344 2.4634-11.455-0.70339-16.14-1.3739 1.5821 3.2484 6.6269 1.33 9.9151 0.57236 2.7463-2.955 6.4251-2.0281 8.0666 0.66423-0.44407 1.044-1.1575 1.4015-1.8414zm754.68-9.5719c4.6076-1.9353 8.8711-6.5124 8.9064-11.658-2.2473 2.8252-3.5351 8.1802-7.7737 10.021-4.1613 1.6702-9.8769 1.4341-13.399-1.3858-2.2106-1.2194-4.6051-8.7396-0.44832-4.6894 3.3362 5.0448 12.239 4.8914 14.613-0.98902 1.5436-3.3263 5.4299-4.8954 7.3134-5.5533 0.5413-9.1079-10.523-15.94-18.618-12.098-5.3223 1.7743-9.2877 7.208-8.7052 12.899-0.36709 5.8467 2.9849 12.054 9.0124 13.374 2.9178 1.089 6.1794 1.2704 9.098 0.0791zm5.972-17.125c-1.4279-3.8515 3.788 0.53618 0 0zm-765.4-0.90939c2.6809 0.54709 7.3076-4.1185 2.1729-1.7492-3.1918 1.986-10.458 1.8461-10.986-2.1514 5.1096-0.76169 12.765-1.6892 12.916-8.414 3.1694-1.0959 3.6264-3.7756 1.5295-6.6337-0.84481-2.0966-5.9462-5.2682-0.57731-5.6266-4.6347-2.4078-10.641-3.7739-15.357-0.81626-5.4172 3.0333-7.7191 9.6022-6.2232 15.484 1.4379 6.6487 8.5504 11.852 15.352 10.035l0.59079-0.0648 0.58249-0.0625zm-12.925-5.7702c-2.0566-4.9589 5.8101 2.096 0.5677 0.78022zm19.588 2.0662c3.2566-3.0578 5.0298-8.6531 3.3992-12.631-0.01202 4.5807-2.992 10.003-4.2247 13.177zm746.66-10.145c5.4024-1.2178 10.163-6.2988 9.2524-12.071-1.424 4.7406-3.9188 10.045-9.2625 11.164-4.8305-0.0865-10.689-1.7367-12.267-6.9132 2.7049-0.84744 6.0987 5.0445 10.234 3.3043 4.536-0.0146 4.6481-6.0364 8.307-7.1474-0.43282-2.258 0.87311-7.587 2.5672-2.9656 0.71785 5.5574 1.2349-4.5656-1.5958-5.4108-3.3062-4.9627-10.046-6.5504-15.396-4.1275-5.7004 2.3324-7.8525 9.7106-6.9592 15.381 1.7834 5.9107 9.0149 10.74 15.12 8.7857zm-743.37-4.0918c-0.46584-2.0912-2.8739-4.4477-1.0722-1.1389 0.16764 0.38803 1.2071 3.2447 1.0722 1.1389zm-2.4248-5.1247c-2.3593-1.6946 1.6399 3.8772 0 0zm220.22-2.6408c3.4007-3.2712-1.7141 1.095-3.4377 0.97642-6.0227 1.8047 3.4335 0.8046 3.4377-0.97642zm51.202-0.41374c1.2521-2.7394 5.6718 1.7552 7.266-2.1299 3.1111-2.8468 7.0408-6.512 1.1221-8.8413-4.2444-2.7565-10.227 1.3691-11.165 5.8191-0.67954 1.136 1.8867 8.0912 2.7768 5.1522zm-18.251-0.75928c4.145 1.7429 9.757-1.8382 8.8143-6.6371 1.151-4.8477-8.6586-5.5096-11.278-1.995-0.67737 2.7487-2.8054 7.6938-0.0551 9.4808 0.6226-1.0487 1.3266-1.8276 2.5185-0.84864zm-14.963-0.43041c3.9916-0.22851 4.2849-3.6992 4.663-6.536 2.8621 5.0741 0.88488-4.6339-2.6963-3.8874-6.0248-3.4873-13.517 3.4114-11.929 9.675 1.3157 1.7364 4.1182-1.159 5.5706 1.6206 1.4862 0.5795 3.1672 0.0456 4.3913-0.87215zm-29.029 0.0258c1.1886-3.7447 7.0829 1.4021 8.6628-3.3601 4.7432 0.0763 0.68004-5.7865 4.0584-6.6106-3.4177-6.2175-14.574-3.3189-15.011 3.6428-0.69147 1.6952 0.73254 8.2132 2.29 6.3279zm215.8-0.0833c4.8913-2.7081-8.27 1.6878-1.2542 0.42887l0.63458-0.19515 0.6196-0.23374zm-128.16-1.6749c2.7085-2.2809 6.5728-6.3806 1.0486-8.059-5.1154-2.709-11.725 3.2222-9.3775 8.5343 1.0746 1.6735 4.8007 0.39893 6.7091 0.32397 0.57213-0.19454 1.1084-0.48096 1.6198-0.79933zm111.02 0.72052c2.4825-3.0013-3.1707 2.8303 0 0zm72.977-1.0034c4.0267-3.9465-5.078 1.0412-5.6813 1.1802 1.9465-0.01 4.1564 0.36682 5.6813-1.1802zm-280.12-0.31755c2.4052-1.7531 2.4288-8.4852 0.50004-2.9768-1.3532 1.4418-4.6472 5.9764-0.50004 2.9768zm22.395 0.33532c-0.11743-2.0236-1.2851 2.5245 0 0zm194.52-0.28105c2.3416-1.2015 7.0791-0.63372 7.4696-5.1213 1.8469-5.6483 3.4422 6.9499 3.8367 0.89586-0.28982-5.9985-7.1354-8.6743-11.655-4.9411-3.5544 0.68514-2.868 12.289 0.34857 9.1666zm36.831 0.31577c3.7697-2.5608 7.5411-6.8323 4.7574-11.412-5.8734-2.5191-12.366 5.9464-7.3102 10.7 0.39165 0.44087 2.4063 2.3944 2.5528 0.7119zm-139.84-1.6905c2.0459-1.0294 2.089-7.5688 4.1855-2.934 1.9873 2.9161-0.40012-4.6644-2.3037-4.7438-5.2469-3.3947-13.126 2.5423-10.511 8.513 2.7206 0.52204 6.3774 2.2346 8.6295-0.83522zm120.39 1.4405c4.9994 0.19285 6.6313-5.292 9.3162-7.9889-2.8057-4.7959-10.553-2.5649-12.137 2.2992-0.73174 1.7039 0.24095 7.3024 2.8212 5.6897zm9.6674-0.22432c0.709-3.633-2.25 2.5238-5e-5 0zm-441.5-0.73639c-1.909 0.11702-7.3257-3.748-7.7394-2.9848 1.7312 1.9753 5.1405 4.1782 7.7394 2.9848zm396.32-0.0461c4.5149 0.46627 7.3501-3.0377 9.6306-6.1984 1.8084-5.1621-8.0405-5.2714-10.2-1.2835-1.8519 1.1257-2.4686 9.1342 0.56922 7.4819zm-73.042-0.43419c3.9271-0.75674 9.4625-2.6829 8.3164-7.3318 4.2221-2.7442-6.2548-5.7745-8.3042-2.5107-3.3649 1.5748-4.7422 10.377-0.0122 9.8425zm84.477-1.9068c-2.1703 1.3923-0.35326 3.3585 0 0zm60.35 1.6666c2.6036-1.1998 7.9959-0.84364 8.3558-5.611 2.6144-3.5085-1.0137-8.288-5.3438-6.0616-4.897 0.6797-7.675 8.141-4.214 11.828 0.19111 0.59518 1.446 0.85888 1.2019-0.15569zm-460.62-0.74057c8.1816-3.7852 9.9976-16.045 3.322-22.035-3.9419-3.2445-9.7224-4.3673-14.618-2.8478-4.3816 1.929-8.2063 6.4764-8.8497 11.32-0.4904 3.3897 1.1765 10.17 4.0486 10.436-1.339-3.3891 1.4022-4.2503 3.3412-1.6135 5.5941 3.6872 11.208-0.81182 13.425-5.728 5.6759 3.7907 0.54116-7.1126 3.527-8.6715 3.5073 3.2677 2.1112 9.6081 0.05992 13.459-1.7352 2.5502-5.016 4.7765-6.7459 6.6331 0.88631-0.15179 1.6915-0.56358 2.4895-0.95295zm377.2 0.67679c5.4234-0.94896-3.784-1.2263-5.3563-1.1012-5.0822-0.0132-10.153 0.35131-15.221 0.68464 6.8427 0.45484 13.727 0.92328 20.577 0.41658zm-22.258-0.65676c-3.0189-0.5764-8.6205-0.92337-10.171 0.19832 3.2097 0.23719 7.4019 0.67301 10.171-0.19832zm-169.4-1.9214c2.9926-1.2188 4.912-3.8378 2.4596-6.6512 5.714-1.742-5.0941-6.8151-7.7199-4.0925-4.6418 1.5091-7.9073 5.9449-5.3114 10.702 2.6704 1.0753 8.0887 2.7962 10.572 0.0413zm294.71-0.0749c3.9949 0.51281 7.9944 0.14666 9.362-4.5489 3.268-1.6663-1.3685-3.3942-0.0114-5.553-3.3313-4.8221-13.071 0.83912-11.585 6.7504 0.23447 0.90969 0.28953 5.1558 2.2342 3.3514zm-339.97-1.6849c-0.0307-0.91327-7.6917-0.0869-7.5936 0.50669 2.4396 0.25426 5.4247 0.84837 7.5936-0.50669zm19.777 0.28701c2.4639-1.2568 3.6079-3.7882 6.85-3.0507 0.90417-2.9031-1.6994-5.9667 0.46116-8.1504-3.5602-3.565-9.0055-3.784-13.165-1.1236-3.6871 1.8962-5.2949 10.867-1.4673 11.747 2.3098-0.77522 4.6083 2.2533 7.3207 0.57767zm274.23-0.55266c-1.7708-0.67884 1.2445 2.1903 0 0zm-242.38-1.6873c-0.98636 0.30555 0.68845 2.29 0 0zm146.91 0.8425c5.1858-5.2173-12.139-2.5053-4.134 0.29409 1.372 0.21627 2.8165 0.18198 4.134-0.29409zm40.981-0.25039c0.9811-3.9459-7.0181-1.8239-9.8054-2.4415-8.396 0.16523-16.798-0.56711-25.182-0.067-3.7628 3.25 6.0842 2.5396 8.466 2.7678 8.8331 0.10201 17.703 0.30934 26.521-0.25927zm120.48 0.19248c4.2717 0.78737 6.8029-1.6624 8.8641-5.1486 1.9272-1.509-3.2604-4.2196-0.52424-5.8261-4.7774-3.3213-10.68 1.9536-10.905 7.103 0.1812 1.0292 0.92103 5.727 2.5652 3.8718zm28.572-0.92446c3.447-2.0757 0.60887-2.0146-1.0886-2e-3 -3.1176 1.3272-0.21896 0.87741 1.0886 2e-3zm-382.89-3.833c-1.1494-1.0489-2.0982 4.7044-0.20717 0.78277zm375.88 0.86331c4.5404 2.3588 6.4061-4.2187 7.7061-6.5871-2.6124-1.255-0.6902-3.0228-0.83847-4.1665-4.7805-1.8366-11.665 1.268-11.279 6.9886 7e-3 2.52 0.97094 7.6521 3.2121 3.4726l0.499 0.0208 0.70067 0.27165zm-407.17-0.57396c2.4226-1.275 4.322-3.9545 0.25474-1.657-1.3719 0.5934-7.8744 2.8098-2.714 2.2706 0.83811-0.10328 1.6894-0.24816 2.4592-0.61367zm610.14-0.43802c2.8047-1.6339 6.2425-5.5826 5.804-8.4977-2.0496 5.5628-8.0279 9.1319-13.97 7.9258-3.4251 0.87202-8.0995-7.512-2.7077-5.5247 3.9452 3.9918 9.3154 0.89812 11.23-2.8373 4.5104 1.751 0.86705-5.6706 5.3062-5.386-0.61428-4.0673-5.0709-7.8428-9.2856-7.8228-4.9913-0.12018-9.8278 2.0113-12.239 6.5487-3.3096 5.7032 0.0846 13.309 5.9902 15.71 3.0398 1.5835 6.7938 1.0498 9.8722-0.11614zm-617.25 0.14859c-3.9681-1.6991 0.24437 1.7676 0 0zm432.06-1.742c2.9942-0.14706 7.3153 0.75395 7.8352-3.6887 4.7235-0.11801 0.68644-4.4499-0.93506-5.644-1.14-3.6081-9.0838 0.99813-8.6719 4.7066-0.4417 1.207-0.47667 7.1068 1.7718 4.6261zm-517.57-0.65974c-3.5119-1.5947 0.20032 1.7691 0 0zm545.92 5e-3c-0.83097-0.90769-1.622 1.4632 0 0zm-541.83-0.48513c-0.7597-1.5831-4.4166 1.4211-0.58938 0.33745zm76.856-1.2758c0.3317-4.6643 5.1314 2.7928 8.0373-0.0591 3.0552-1.4642 4.7517-4.7429 6.8735-6.8151-2.2696-3.0772 3.1079-5.1166-0.29734-7.0196-3.4077-3.4449-8.8506-3.6162-12.791-0.95495-5.9526 2.5443-7.0064 11.012-3.1706 15.747 1.0866 1.6792 1.4975 0.15782 1.3483-0.89796zm-85.743 0.41c-2.1767-1.0613-7.8684-7.562-2.935-6.8367 1.7278 5.0017 9.2864 3.3235 12.433 0.60404 1.306-3.0002 2.7162-8.106 5.2243-3.9896 2.5666-2.5597 0.4571-6.6783 2.7393-8.8493-2.6657-4.9633-8.4437-7.7674-14.009-6.8475-8.254 0.56747-13.52 9.6752-11.793 17.376 0.77278 4.2409 4.6865 9.2232 9.1926 9.2279zm129.7-0.12329c-1.0623-1.1083-1.273 1.7589 0 0zm-114.14-3.0765c2.8306-2.9133 3.9571-7.0863 3.5485-11.066-0.93281 5.1363-3.1613 10.118-7.3882 13.392-1.1274 1.7341 3.4663-1.669 3.8397-2.3265zm52.836 2.0637c4.0344-1.0828 10.417-6.499 7.972-10.434-1.7414 4.5393-5.0699 8.56-10.062 9.5322-1.4635 0.45128-6.5845 0.59968-2.1768 1.4134 1.4375 0.0869 2.8833-0.12877 4.2668-0.51181zm475.69-0.286c4.6833 1.9088 4.7793-4.1786 7.345-5.5476-0.83808-1.9994-2.5057-3.6901-2.1173-5.4997-5.5732-1.1157-11.486 4.777-9.4276 10.314 1.1104 3.1007 2.116-0.92593 4.1999 0.73377zm28.004-2.0169c3.1498-3.8842-7.5688 4.2069-1.2664 0.78436l0.68917-0.39228 0.57721-0.39206zm-513.01 0.0404c-4.648-6.0679 5.4792-0.7831 8.069-3.933 1.6409-3.8785 8.094-4.3984 6.2315-9.4532 1.3936 0.0277 5.2501 0.62693 2.4345-2.5797-3.6095-5.5949-12.144-6.0736-17.416-2.7155-3.0081 2.9254-6.2552 7.4101-4.9197 11.791 0.64067 2.3479 2.8328 7.8807 5.6002 6.8902zm502.78-1.2012c0.30175-2.954 6.4241 1.6813 6.6848-3.2647-0.59213-3.0832 5.0439-2.4745 1.1103-5.4017-1.9332-1.4502-0.31197-5.3878-4.1305-3.1324-4.0035 1.5439-7.1118 5.7457-5.4335 10.093-0.11493 0.63337 1.6734 3.7365 1.7688 1.7056zm-521.52-0.83428c3.0719-1.0381 9.2314-6.8963 7.459-7.8705-2.2961 4.4075-6.7845 7.0608-11.707 7.3011-3.587 0.28616-10.296-3.7965-8.9986-7.3114 3.962 3.7605 11.254 4.9361 14.279-0.69455 2.4619-2.1404 5.9802-3.1842 5.1852-7.1724 5.9567 0.37025-0.33153-6.6082-2.9926-7.4984-5.7865-3.8141-14.46-1.9745-18.204 3.8241-4.0288 6.2349-1.467 15.385 5.2868 18.506 2.9643 1.5028 6.5007 1.8829 9.6922 0.91598zm544.64-3.5728c5.2164 1.1317 4.7868-5.7034 8.1546-7.4359-2.4848-3.7084-5.5242-8.8454-10.251-4.0501-3.9006 2.4101-4.7598 8.3135-2.018 11.828 1.3554 0.20892 2.6815-0.82771 4.1148-0.34241zm-507.84-4.8884c-1.738-0.1983 0.76379 2.4629 0 0zm526.91-0.11225c-1.9894-4.9511 8.8609 0.70847 8.0594-5.7126 1.0649-1.3699 4.5257-0.39501 2.001-3.7036-3.4607-2.0977-5.9797-7.5603-10.303-3.1626-4.3397 3.0341-4.2376 11.236 0.78682 13.508l0.0229-0.14144-0.56711-0.78737zm-31.489-0.74999c-2.978-1.8742 1.692 2.4204 0 0zm66.602-2.327c1.8815-1.3297 2.9818-4.6398 0.11288-1.5682-1.03 1.2062-8.6805 4.1323-3.0438 3.5828 1.2211-0.22588 2.0776-1.2036 2.931-2.0146zm35.003 1.1377c-2.0858-1.7772-0.24679 1.6252 0 0zm-46.354-0.37348c-2.8262-2.9935-0.0448-4.2376 2.6776-2.6781 5.8886 1.8137 4.0365-6.7738 8.3705-6.7974-2.0769-4.0414-3.1573-10.066-8.8661-7.5223-5.4811 1.1839-8.1492 7.08-6.953 12.223 0.59788 1.5185 3.1742 5.8506 4.771 4.7747zm33.457-1.1551c2.0218-0.3023 5.2452-4.818 1.528-1.9092-1.1038 1.4947-9.9279 3.0108-4.1237 2.7789 0.89349-0.19192 1.774-0.46532 2.5957-0.86962zm21.838-0.92249c1.0188-3.4834 7.1824-3.3225 4.0618-7.6713-1.8563-1.9395-2.1723-4.4498 0.38306-4.9555-3.5352-3.4747-10.026-2.2334-13.494 0.76633-3.6187 2.758-4.7421 8.2132-2.1994 12.039 0.39824-5.862 4.2784 0.22478 7.3875 0.38063 1.3018 0.18208 2.6762 0.0417 3.8607-0.55908zm-25.993-2.3507c3.2462-1.4941 4.433-5.4585 6.1862-7.8878-0.82296-2.7493-3.1851-5.0699-2.4652-7.153-5.6397-1.8872-11.226 1.6792-13.374 6.9011-1.6289 3.1943-0.14722 10.028 4.0004 7.1045 1.7081 1.2224 3.5992 1.9251 5.6527 1.0353z"/>
 </g>
</svg>
